<svg xmlns="http://www.w3.org/2000/svg" viewBox="0 0 512 512">
  <defs>
    <linearGradient id="g" x1="0" y1="0" x2="1" y2="1">
      <stop stop-color="#2bcde8"/>
      <stop offset=".5" stop-color="#7169f4"/>
      <stop offset="1" stop-color="#344dbe"/>
    </linearGradient>
  </defs>
  <rect width="512" height="512" rx="108" fill="#eef4ff"/>
  <rect x="34" y="34" width="444" height="444" rx="88" fill="url(#g)"/>
  <circle cx="256" cy="256" r="152" fill="none" stroke="#fff" stroke-opacity=".22" stroke-width="8"/>
  <path d="M135 160h52v143h83v48H135zm164 0h92c64 0 98 32 98 86 0 38-18 65-52 77l58 28h-67l-49-24h-28v24h-52zm52 44v80h38c31 0 47-14 47-40 0-27-16-40-47-40z" fill="#fff"/>
</svg>